<svg xmlns="http://www.w3.org/2000/svg" viewBox="0 0 64 64">
  <!-- Bottom book (blue) -->
  <rect x="6" y="44" width="52" height="10" rx="3" fill="#2563eb"/>
  <rect x="6" y="44" width="8" height="10" rx="2" fill="#1d4ed8"/>
  <rect x="14" y="45" width="40" height="8" rx="1" fill="#bfdbfe"/>

  <!-- Middle book (red/orange) -->
  <rect x="10" y="33" width="46" height="12" rx="3" fill="#dc2626"/>
  <rect x="10" y="33" width="7" height="12" rx="2" fill="#b91c1c"/>
  <rect x="17" y="34" width="35" height="10" rx="1" fill="#fecaca"/>

  <!-- Top book (green) upright, slightly tilted -->
  <rect x="18" y="8" width="28" height="38" rx="4" fill="#16a34a"/>
  <rect x="18" y="8" width="6" height="38" rx="3" fill="#15803d"/>
  <rect x="24" y="12" width="18" height="30" rx="2" fill="#dcfce7"/>
  <!-- Lines on green book pages -->
  <rect x="27" y="18" width="12" height="2" rx="1" fill="#86efac"/>
  <rect x="27" y="23" width="12" height="2" rx="1" fill="#86efac"/>
  <rect x="27" y="28" width="9" height="2" rx="1" fill="#86efac"/>
  <rect x="27" y="33" width="12" height="2" rx="1" fill="#86efac"/>
</svg>
